# xmcd CD database file
#
# Track frame offsets:
#	150
#	14596
#	29964
#	44681
#	60069
#	73950
#	88871
#	101447
#	115538
#	142639
#	156737
#	170703
#	184456
#	199143
#	212994
#
# Disc length: 3017 seconds
#
# Revision: 1
# Processed by: cddbd v1.5PL3 Copyright (c) Steve Scherf et al.
# Submitted via: CDex 1.50
#
DISCID=e50bc70f
DTITLE=Lionel Hampton - Hamps's Boogie
DYEAR=1947
DGENRE=Jazz
TTITLE0=Flying Home No 1
TTITLE1=In the Bag
TTITLE2=Hamp's Boogie Woogie No1
TTITLE3=Flying Home No 2
TTITLE4=Loose Wig
TTITLE5=Hey Ba Ba Re Bop
TTITLE6=Slide Hamp Slide
TTITLE7=Playboy
TTITLE8=Air Mail Special
TTITLE9=Empty Glas
TTITLE10=Cobb's Idea
TTITLE11=Red Top
TTITLE12=Midnight Sun
TTITLE13=Beulah's Sister's Boogie
TTITLE14=Hamp's Boogie Woogie No 2
EXTD=YEAR: 1947
EXTT0=
EXTT1=
EXTT2=
EXTT3=
EXTT4=
EXTT5=
EXTT6=
EXTT7=
EXTT8=
EXTT9=
EXTT10=
EXTT11=
EXTT12=
EXTT13=
EXTT14=
PLAYORDER=
